<?xml version="1.0" encoding="utf-8"?>
<!-- Generator: Adobe Illustrator 22.1.0, SVG Export Plug-In . SVG Version: 6.00 Build 0)  -->
<svg version="1.1" id="Layer_1" xmlns="http://www.w3.org/2000/svg" xmlns:xlink="http://www.w3.org/1999/xlink" x="0px" y="0px"
	 viewBox="0 0 36 36" style="enable-background:new 0 0 36 36;" xml:space="preserve">
<style type="text/css">
	.st0{fill:#FAFAFA;}
	.st1{fill:#FFFFFF;}
</style>
<g id="Group_624">
	<path class="st0" d="M18,0C8.1,0,0,8.1,0,18c0,10,8.1,18,18,18s18-8,18-18C36,8.1,27.9,0,18,0z M24.4,22.6c0,0.5-0.5,1-1,1H12.2
		c-0.6,0-1-0.5-1-1v-9.5c0-0.5,0.4-1,1-1h11.2c0.5,0,1,0.5,1,1V22.6z"/>
</g>
<g id="Group_623" transform="translate(-397.622 -15595.74)">
	<polygon class="st1" points="415.4,15614.2 410.5,15610.4 411.2,15609.6 415.4,15613 419.7,15609.6 420.3,15610.4 	"/>
</g>
</svg>
