<?xml version="1.0" encoding="utf-8"?>
<!-- Generator: Adobe Illustrator 22.1.0, SVG Export Plug-In . SVG Version: 6.00 Build 0)  -->
<svg version="1.1" id="Layer_1" xmlns="http://www.w3.org/2000/svg" xmlns:xlink="http://www.w3.org/1999/xlink" x="0px" y="0px"
	 viewBox="0 0 36 36" style="enable-background:new 0 0 36 36;" xml:space="preserve">
<style type="text/css">
	.st0{fill:#FAFAFA;}
</style>
<g id="Group_620" transform="translate(425.419 -996)">
	<path class="st0" d="M-407.4,996c-9.9,0-18,8.1-18,18s8.1,18,18,18s18-8.1,18-18S-397.5,996-407.4,996z M-403.5,1009.5h-1.4
		c-0.4,0-0.8,0.1-1.1,0.3c-0.2,0.3-0.3,0.6-0.2,0.9v1.8h2.5l-0.4,3.7h-2.1v5.7h-3.8v-5.7h-2.3v-3.7h2.3v-2.1c-0.1-1,0.3-1.9,0.9-2.6
		c0.7-0.6,1.6-1,2.5-0.9c0.8,0,2.5,0,3,0.1V1009.5z"/>
</g>
</svg>
